<svg xmlns="http://www.w3.org/2000/svg" viewBox="0 0 100 100">
  <rect width="100" height="100" rx="20" fill="#1a1a1a"/>
  <g transform="translate(3, 15) scale(0.94)" fill="#22c55e">
    <path d="M94.974,32.303c-0.009-0.068-0.027-0.139-0.055-0.207c-0.028-0.068-0.066-0.132-0.113-0.187c-0.094-0.109-0.225-0.18-0.389-0.163h0c-0.016,0.002-0.032,0.003-0.048,0.004c-3.247,0.337-6.391-0.686-8.821-2.867c-2.097-1.883-4.046-3.929-7.051-4.079c-2.54-0.127-4.362,1.528-5.227,3.797c-0.999,2.62-1.151,5.368-2.616,7.832c-5.592,9.403-16.969,8.33-26.346,8.33c-11.083,0-23.455-0.491-31.227,9.024c-0.057,0.07-1.541,1.931-2.464,2.686h0c-0.026,0.021-0.052,0.044-0.077,0.064c-0.523,0.406-0.984,0.744-1.396,1.028c-0.963,0.662-1.669,1.029-2.32,1.285c-0.186,0.073-0.368,0.137-0.549,0.197c-0.091,0.03-0.182,0.058-0.274,0.086c-0.275,0.084-0.556,0.162-0.859,0.248c-0.177,0.05-0.177,0.26-0.065,0.346c0.038,0.029,0.088,0.043,0.148,0.034c1.521-0.241,4.116-0.964,5.437-1.551c0.17-0.075,0.332-0.16,0.492-0.249c0.113-0.061,0.224-0.126,0.333-0.193l0,0c0.555-0.341,1.06-0.751,1.502-1.246c0.575-0.643,1.187-1.467,1.994-1.804c0.048-0.02,0.102-0.031,0.154-0.024c1.008,0.126,1.078,2.465,1.071,3.168c-0.006,0.63-0.072,1.311-0.519,1.796c-0.315,0.341-0.767,0.533-1.083,0.878c-0.704,0.767-0.567,1.895-0.604,2.854c-0.052,1.357-0.156,2.712-0.312,4.061c-0.119,1.03-0.272,2.057-0.454,3.078c-0.058,0.327-0.12,0.653-0.184,0.979c-0.049,0.248-0.129,0.528-0.198,0.818c-0.069,0.29-0.128,0.591-0.136,0.88c-0.01,0.347,0.053,0.679,0.259,0.957c0.018,0.025,0.04,0.047,0.06,0.071c0.063,0.074,0.134,0.142,0.212,0.204c0.062,0.049,0.129,0.095,0.199,0.137c0.584,0.351,1.406,0.464,2.03,0.542c0.055,0.007,0.108,0.013,0.159,0.02c0.449,0.057,0.897,0.076,1.342,0.063c0.742-0.023,1.478-0.138,2.206-0.33c0.546-0.144,0.591-1.033,0-1.151c-0.04-0.008-0.093-0.016-0.153-0.024c-0.093-0.013-0.206-0.026-0.332-0.042c-0.298-0.037-0.665-0.086-0.992-0.171c-0.079-0.021-0.156-0.043-0.229-0.068c-0.078-0.027-0.146-0.069-0.206-0.118c-0.095-0.077-0.169-0.173-0.212-0.284c-0.036-0.091-0.053-0.189-0.049-0.289c0.004-0.099,0.028-0.2,0.076-0.295l0.364-0.721c0.029-0.057,0.061-0.112,0.09-0.168c0.673-1.279,1.587-2.417,2.697-3.345l0.019-0.016c0.467-0.392,0.931-0.757,1.525-0.933c0.67-0.198,1.392-0.132,2.082-0.19c1.866-0.158,3.687-0.801,5.243-1.844c1.205-0.808,2.139-1.777,2.95-2.917c0.186-0.262,0.308-0.204,0.367-0.852h0.26H59.37c0,0,1.282,2.451,3.514,3.411c0.962,0.414,1.852,1.065,2.607,1.799c0.962,0.935,1.237,2.073,1.274,3.368c0.005,0.174,0.043,0.37,0.044,0.582c0,0.106-0.065,0.214-0.069,0.325c-0.003,0.071-0.033,0.143-0.035,0.215c-0.001,0.027-0.015,0.053-0.016,0.08c-0.002,0.086-0.009,0.172-0.008,0.259c0,0.018-0.002,0.036-0.002,0.054c0.002,0.075,0.003,0.149,0.008,0.223c0.001,0.021,0.001,0.041,0.003,0.061c0.007,0.084,0.016,0.167,0.028,0.249c0.003,0.019,0.006,0.037,0.009,0.056c0.013,0.073,0.028,0.145,0.046,0.214c0.003,0.012,0.005,0.024,0.009,0.036c0.022,0.076,0.048,0.148,0.078,0.218c0.007,0.016,0.015,0.032,0.022,0.048c0.033,0.07,0.07,0.137,0.113,0.198c0.22,0.306,0.625,0.468,1.074,0.556c0.128,0.025,0.26,0.044,0.392,0.059c0.132,0.014,0.265,0.025,0.394,0.032c0.065,0.004,0.129,0.006,0.192,0.009c0.251,0.009,0.485,0.01,0.673,0.016c0.156,0.005,0.311,0.006,0.467,0.004c0.621-0.009,1.238-0.072,1.848-0.183c0.457-0.083,0.91-0.193,1.357-0.326c0.08-0.024,0.147-0.058,0.201-0.099c0.384-0.288,0.175-0.933-0.349-0.995c-0.094-0.011-0.221-0.043-0.362-0.085c-0.071-0.021-0.145-0.045-0.22-0.07c-0.375-0.126-0.775-0.286-0.894-0.327c-0.062-0.021-0.118-0.054-0.172-0.091c-0.014-0.01-0.027-0.02-0.04-0.031c-0.045-0.036-0.087-0.075-0.126-0.121c-0.006-0.007-0.012-0.013-0.018-0.02c-0.097-0.117-0.178-0.262-0.247-0.422c-0.265-0.613-0.352-1.447-0.469-1.803c-0.184-0.561-0.318-1.134-0.423-1.714c-0.234-1.285-0.624-2.397,0.282-3.323c0.513-0.525,1.221-0.843,1.848-1.206c1.531-0.887,2.796-2.099,3.814-3.507c0.306-0.422,0.589-0.862,0.851-1.316c0.262-0.454,0.502-0.922,0.721-1.4c0.427-0.931,0.773-1.888,1.063-2.861c0.058-0.195,0.114-0.39,0.168-0.586c0.108-0.392,0.208-0.786,0.301-1.181c0.094-0.396,0.181-0.793,0.263-1.192c0.247-1.196,0.451-2.403,0.657-3.606c0.014-0.081,0.029-0.162,0.043-0.243c0.229-1.316,0.488-2.62,0.786-3.913c0.461,0.035,0.922,0.041,1.378-0.001c1.728-0.157,3.456-0.825,3.649-2.778c0.047-0.478-0.021-1.116-0.186-1.856c-0.05-0.226-0.11-0.462-0.178-0.705c0.405,0.022,0.81,0.026,1.215,0.013c0.029-0.001,0.059-0.002,0.088-0.003c0.231-0.009,0.462-0.022,0.692-0.042c0.005,0,0.01-0.001,0.015-0.001c0.215-0.019,0.43-0.044,0.645-0.073c0.044-0.006,0.089-0.012,0.133-0.018c0.221-0.032,0.441-0.068,0.66-0.111c0.009-0.002,0.018-0.004,0.027-0.006c0.206-0.041,0.41-0.087,0.614-0.138c0.053-0.013,0.107-0.026,0.16-0.04c0.212-0.055,0.424-0.114,0.633-0.179c0.128-0.04,0.258-0.083,0.389-0.13c0.131-0.047,0.264-0.097,0.398-0.15c0.467-0.187,0.941-0.416,1.385-0.689c0.19-0.117,0.375-0.242,0.551-0.375c0.235-0.177,0.455-0.369,0.653-0.576C94.687,34.31,95.112,33.404,94.974,32.303z"/>
  </g>
</svg>
